<svg width="364" height="364" viewBox="0 0 364 364" fill="none" xmlns="http://www.w3.org/2000/svg">
<g clip-path="url(#clip0_3_2)">
<path d="M88.0001 231.853H17.0001L15.0001 222.77H97.5001L88.0001 231.853Z" fill="#1F845A"/>
<path d="M253 232.331H238L240.5 223.726H248.355L262.5 200.302H271.5L288.5 244.282L308.5 164.926H317.093L332.5 219.902H363.144L361 227.551H325.216L314.766 190.263L294 264.36H284.5L264.258 213.687L253 232.331Z" fill="#1F845A"/>
<path d="M65.9791 39.8464C102.667 10.0048 149.653 -3.97649 196.603 0.979218C243.553 5.93495 286.621 29.421 316.331 66.2712L306.129 74.5691C275.876 37.2398 229.718 13.3856 178.001 13.3855C86.8737 13.3855 13.0007 87.4395 13.0006 178.79C13.0006 218.295 26.8182 254.564 49.8707 283.009L39.6696 291.308C9.9597 254.458 -3.95862 207.262 0.97522 160.104C5.90907 112.946 29.2917 69.6881 65.9791 39.8464Z" fill="#0C66E4"/>
<path d="M79.5289 315.757C118.453 340.325 168.605 349.825 218.759 338.087C258.248 328.846 291.373 307.926 314.733 280.422L325.495 288.028C295.797 322.812 252.916 346.159 205.676 353.264C158.436 360.37 110.428 350.693 71.5303 326.226L79.5289 315.757Z" fill="#0C66E4"/>
<circle cx="216.5" cy="69.5" r="27.5" fill="#0C66E4"/>
<path d="M260.5 138.5L295 113.5C308.2 111.1 306.833 121.167 304.5 126.5C293.667 135.667 270.3 155.8 263.5 163C256.7 170.2 243 167.333 237 165L206 144.5L175 192C184.333 198.167 205.8 212.3 217 219.5C228.2 226.7 226 242.167 223.5 249C211 266.833 182.1 305.3 166.5 316.5C150.9 327.7 150.333 313.5 152 305L192 241L152 225L115.5 283C99.0001 297.833 62.3001 331.1 47.5001 345.5C29.1001 355.5 29.5001 341.333 32.0001 333L92.0001 267.5C96.3335 258.167 105.3 238.8 106.5 236C107.7 233.2 116 203.5 120 189C130.333 168.5 152 125 156 115C149.6 107.8 125 109.667 113.5 111.5L93.5001 132C93.0001 132.333 89.9001 135.3 81.5001 144.5C67.9001 150.9 66.5001 139.5 67.5001 133C67.8335 132.167 71.1001 127.1 81.5001 113.5C103.5 84 127 83 145 81.5C159.4 80.3 190 97.6667 203.5 106.5C212.167 114 232 130.9 242 138.5C252 146.1 258.5 141.667 260.5 138.5Z" fill="#0C66E4"/>
</g>
<defs>
<clipPath id="clip0_3_2">
<rect width="364" height="364" fill="white" transform="translate(-0.00012207 -0.000518799)"/>
</clipPath>
</defs>
</svg>
