<svg width="116" height="46" viewBox="0 0 116 46" fill="none" xmlns="http://www.w3.org/2000/svg">
<g clip-path="url(#clip0_23_2)">
<mask id="mask0_23_2" style="mask-type:luminance" maskUnits="userSpaceOnUse" x="0" y="0" width="116" height="46">
<path d="M0 0H116V46H0V0Z" fill="white"/>
</mask>
<g mask="url(#mask0_23_2)">
<path d="M10.3215 27.945H1.99393L1.75935 26.795H11.4944L10.3215 27.945ZM29.6744 27.945H27.9151L28.2669 26.91H29.088L30.8473 24.15H31.9029L33.8969 29.44L36.2427 19.895H37.181L39.0576 26.45H42.5763L42.3418 27.37H38.1193L36.9464 22.885L34.4833 31.855H33.4277L30.9646 25.76L29.6744 27.945Z" fill="#2ABB7F"/>
<path d="M7.74116 4.83001C9.83483 3.05785 12.2778 1.72675 14.9183 0.919393C17.5588 0.112041 20.3405 -0.154313 23.0904 0.136881C25.8403 0.428075 28.4998 1.27059 30.9036 2.6121C33.3074 3.9536 35.4042 5.76542 37.0637 7.93501L35.8908 8.97001C32.3721 4.48501 26.9768 1.61001 20.8777 1.61001C10.2043 1.61001 1.52478 10.465 1.52478 21.505C1.52478 26.22 3.16684 30.59 5.86452 34.04L4.69161 35.075C1.20773 30.5889 -0.414464 24.9758 0.151301 19.3646C0.717066 13.7534 3.42882 8.56042 7.74116 4.83001ZM9.38322 37.95C13.7037 40.6993 18.9083 41.7857 23.9963 41.0002C29.0843 40.2148 33.6966 37.613 36.9464 33.695L38.1193 34.615C34.5874 38.7856 29.6275 41.5528 24.1665 42.3993C18.7054 43.2459 13.1168 42.1139 8.4449 39.215L9.38322 37.95ZM47.0334 13.455V2.99001H48.6754L55.361 11.04H54.54V2.99001H56.5339V13.455H54.8918L48.2063 5.40501H49.0273V13.455H47.0334ZM62.633 13.57C61.9292 13.57 61.3428 13.455 60.8736 13.225C60.2872 12.88 59.9353 12.535 59.5834 12.075C59.3489 11.5 59.1143 10.81 59.1143 10.005V5.52001H61.1082V9.77501C61.1082 10.465 61.2255 11.04 61.5774 11.385C61.9292 11.73 62.3984 11.96 62.9848 11.96C63.454 11.96 63.8059 11.845 64.1578 11.615C64.5096 11.5 64.7442 11.155 64.8615 10.81C65.0961 10.465 65.2134 10.005 65.2134 9.54501V5.52001H67.09V13.455H65.3307V11.27L65.5652 11.96C65.3307 12.535 64.9788 12.88 64.3923 13.11C63.9232 13.455 63.3367 13.57 62.633 13.57ZM69.5531 13.455V5.52001H71.4297V7.70501L71.1952 7.01501C71.4297 6.44001 71.7816 6.09501 72.3681 5.75001C72.8372 5.52001 73.541 5.40501 74.362 5.40501V7.13001H73.8928C73.1891 7.13001 72.6026 7.36001 72.1335 7.70501C71.6643 8.16501 71.547 8.74001 71.547 9.54501V13.455H69.5531ZM79.6401 13.57C78.819 13.57 77.998 13.34 77.2943 12.995C76.5905 12.65 76.1214 12.19 75.7695 11.615C75.4176 10.925 75.183 10.235 75.183 9.43001C75.183 8.62501 75.4176 7.93501 75.7695 7.36001C76.1214 6.78501 76.5905 6.21001 77.177 5.86501C77.8807 5.52001 78.5844 5.40501 79.4055 5.40501C80.2265 5.40501 80.9303 5.52001 81.5167 5.86501C82.1031 6.21001 82.5723 6.67001 82.9242 7.36001C83.4002 8.1586 83.6056 9.0847 83.5106 10.005H76.7078V8.85501H82.455L81.7513 9.20001C81.7513 8.74001 81.634 8.39501 81.3994 8.05001C81.2821 7.70501 80.9303 7.36001 80.5784 7.13001L79.4055 6.90001L78.1153 7.13001L77.2943 8.05001L77.0597 9.20001V9.54501C77.0597 10.005 77.177 10.465 77.4115 10.81C77.6461 11.155 77.8807 11.5 78.3499 11.73L79.7573 11.96C80.2265 11.96 80.5784 11.96 80.9303 11.73L81.9859 11.155L82.9242 12.305C82.4934 12.7239 81.9799 13.0522 81.4152 13.2697C80.8505 13.4872 80.2465 13.5894 79.6401 13.57ZM47.0334 28.29V17.825H51.4904C52.4287 17.825 53.2498 17.94 53.8362 18.285C54.54 18.63 55.1264 18.975 55.4783 19.55C55.8301 20.125 55.9474 20.815 55.9474 21.505C55.9474 22.31 55.8301 23 55.4783 23.575C55.1264 24.15 54.54 24.495 53.8362 24.84C53.2498 25.07 52.4287 25.3 51.4904 25.3H48.2063L49.0273 24.38V28.29H47.0334ZM49.0273 24.61L48.2063 23.575H51.3731C52.1941 23.575 52.8979 23.46 53.3671 23.115C53.7189 22.77 53.9535 22.195 53.9535 21.505C53.9535 20.93 53.7189 20.355 53.3671 20.01C52.8979 19.665 52.1941 19.435 51.3731 19.435H48.2063L49.0273 18.515V24.61ZM62.5157 20.24C63.2194 20.24 63.8059 20.355 64.275 20.585C64.8615 20.815 65.2134 21.275 65.5652 21.735C65.7998 22.195 65.9171 22.885 65.9171 23.69V28.29H64.0405V23.92C64.0405 23.23 63.9232 22.77 63.5713 22.425C63.2194 21.965 62.7503 21.85 62.1638 21.85L60.8736 22.08C60.639 22.31 60.2872 22.54 60.1699 22.885C59.9353 23.23 59.818 23.69 59.818 24.265V28.29H57.9414V17.25H59.818V22.425L59.4661 21.85C59.7007 21.275 60.1699 20.93 60.639 20.585C61.2255 20.355 61.8119 20.24 62.5157 20.24ZM68.8494 31.28C68.4975 31.28 68.1456 31.28 67.6765 31.05L66.7381 30.59L67.4419 29.21L68.1456 29.555L68.8494 29.785C69.2012 29.785 69.5531 29.67 69.6704 29.44L70.3741 28.635L70.8433 27.6L70.9606 27.37L74.0101 20.355H75.8868L72.0162 28.98C71.7816 29.555 71.547 30.015 71.1952 30.36L70.1395 31.05C69.7877 31.28 69.3185 31.28 68.8494 31.28ZM70.6087 28.52L66.8554 20.355H68.8494L71.8989 27.255L70.6087 28.52ZM79.4055 28.405L77.5288 28.175L76.0041 27.485L76.7078 26.105L77.998 26.68L79.5228 26.91L80.9303 26.68L81.2821 25.99L81.0475 25.53L80.3438 25.185L79.2882 25.07L78.2326 24.84L77.2943 24.495C76.9424 24.38 76.7078 24.15 76.4732 23.805L76.2386 22.77C76.2386 22.195 76.3559 21.735 76.7078 21.39C76.9424 21.045 77.4115 20.7 77.8807 20.585C78.4672 20.355 79.0536 20.24 79.8746 20.24L81.5167 20.355L82.9242 20.93L82.1031 22.31L80.9303 21.85L79.8746 21.735L78.4672 21.965C78.2326 22.195 78.1153 22.31 78.1153 22.655L78.3499 23.115L79.0536 23.46L80.1092 23.575L81.1648 23.805L82.1031 24.15L82.9242 24.84L83.1588 25.875C83.1588 26.45 83.0415 26.91 82.6896 27.255L81.3994 28.06C80.9303 28.29 80.2265 28.405 79.4055 28.405ZM49.2619 43.125V34.27H45.7432V32.66H54.7745V34.27H51.2558V43.125H49.2619ZM58.997 43.24C58.1759 43.24 57.3549 43.01 56.6512 42.665C55.9474 42.32 55.4783 41.86 55.1264 41.285C54.7745 40.595 54.54 39.905 54.54 39.1C54.54 38.295 54.7745 37.605 55.1264 37.03C55.4783 36.455 55.9474 35.88 56.5339 35.535C57.2376 35.19 57.9414 35.075 58.7624 35.075C59.5834 35.075 60.2872 35.19 60.8736 35.535C61.4601 35.88 61.9292 36.34 62.2811 37.03C62.7572 37.8286 62.9625 38.7547 62.8676 39.675H56.0647V38.525H61.8119L61.1082 38.87C61.1082 38.41 60.9909 38.065 60.7563 37.72C60.639 37.375 60.2872 37.03 59.9353 36.8L58.7624 36.57L57.4722 36.8L56.6512 37.72L56.4166 38.87V39.215C56.4166 39.675 56.5339 40.135 56.7685 40.48C57.003 40.825 57.2376 41.17 57.7068 41.4L59.1143 41.63C59.5834 41.63 59.9353 41.63 60.2872 41.4L61.3428 40.825L62.2811 41.975L60.9909 42.895C60.4045 43.125 59.7007 43.24 58.997 43.24ZM67.2073 43.24L65.2134 43.01L63.8059 42.32L64.5096 40.94L65.7998 41.515L67.3246 41.745L68.6148 41.515C68.9667 41.285 69.0839 41.055 69.0839 40.825C69.0839 40.595 68.9667 40.48 68.7321 40.365L68.0283 40.02L67.09 39.905L66.0344 39.675L64.9788 39.33L64.275 38.64L64.0405 37.605C64.0405 37.03 64.1578 36.57 64.5096 36.225C64.7442 35.88 65.2134 35.535 65.6825 35.42C66.269 35.19 66.8554 35.075 67.5592 35.075L69.2012 35.19L70.6087 35.765L69.905 37.145L68.7321 36.685L67.5592 36.57L66.269 36.8C66.0344 37.03 65.9171 37.145 65.9171 37.49C65.9171 37.72 65.9171 37.835 66.1517 37.95L66.8554 38.295L67.7937 38.41L68.9667 38.64L69.905 38.985L70.6087 39.675C70.8433 39.905 70.9606 40.365 70.9606 40.71C70.9606 41.285 70.726 41.745 70.4914 42.09L69.2012 42.895C68.6148 43.125 68.0283 43.24 67.2073 43.24ZM75.6522 43.24C74.7139 43.24 74.0101 43.01 73.541 42.55C73.0718 42.09 72.8372 41.4 72.8372 40.595V33.35H74.7139V40.48L74.9484 41.4C75.183 41.63 75.5349 41.745 75.8868 41.745L76.9424 41.4L77.4115 42.665L76.5905 43.125L75.6522 43.24ZM71.4297 36.685V35.19H76.9424V36.685H71.4297Z" fill="#0071A4"/>
<path d="M88.2022 22.31H93.4803V23.92H88.2022V22.31ZM88.3195 26.795H94.3013V28.405H86.3256V17.94H94.184V19.55H88.3195V26.795ZM99.6967 28.52C98.9929 28.52 98.2892 28.29 97.5855 27.945C96.999 27.6 96.5298 27.14 96.178 26.565C95.8261 25.99 95.5915 25.185 95.5915 24.38C95.5915 23.575 95.8261 22.885 96.178 22.31C96.5298 21.62 96.999 21.16 97.5855 20.815C98.2018 20.5024 98.8855 20.3393 99.5794 20.3393C100.273 20.3393 100.957 20.5024 101.573 20.815C102.16 21.045 102.512 21.505 102.864 22.08C103.215 22.655 103.333 23.46 103.333 24.38C103.333 25.3 103.215 26.105 102.864 26.68C102.629 27.37 102.16 27.715 101.573 28.06C101.104 28.405 100.4 28.52 99.6967 28.52ZM99.9313 26.91C100.4 26.91 100.87 26.795 101.221 26.565C101.573 26.45 101.808 26.105 102.042 25.76C102.277 25.415 102.394 24.955 102.394 24.38C102.394 23.92 102.277 23.46 102.042 23.115C101.808 22.655 101.573 22.425 101.221 22.195C100.87 21.965 100.4 21.965 99.9313 21.965C99.5794 21.965 99.1102 21.965 98.7584 22.195C98.4065 22.425 98.0546 22.655 97.9373 23.115C97.7027 23.46 97.5855 23.92 97.5855 24.38C97.5855 24.955 97.7027 25.415 97.9373 25.76C98.0546 26.105 98.4065 26.45 98.7584 26.565C99.1102 26.795 99.5794 26.91 99.9313 26.91ZM102.512 28.405V24.38L102.394 22.31V17.365H104.271V28.405H102.512ZM110.253 28.52C109.549 28.52 108.963 28.405 108.376 28.175C107.907 27.83 107.438 27.485 107.203 27.025C106.851 26.45 106.734 25.76 106.734 24.955V20.47H108.611V24.725C108.611 25.415 108.728 25.99 109.08 26.335C109.432 26.68 109.901 26.91 110.487 26.91C110.957 26.91 111.308 26.795 111.66 26.565C112.012 26.45 112.247 26.105 112.481 25.76C112.716 25.415 112.716 24.955 112.716 24.495V20.47H114.71V28.405H112.833V26.22L113.185 26.91C112.833 27.485 112.481 27.83 112.012 28.06C111.426 28.405 110.839 28.52 110.253 28.52Z" fill="#2ABB7F"/>
<path d="M25.3933 11.155C27.1747 11.155 28.6188 9.7391 28.6188 7.9925C28.6188 6.2459 27.1747 4.83 25.3933 4.83C23.6119 4.83 22.1678 6.2459 22.1678 7.9925C22.1678 9.7391 23.6119 11.155 25.3933 11.155Z" fill="#0071A4"/>
<path d="M30.6128 15.985L34.6006 13.11C36.1254 12.765 36.0081 13.915 35.7735 14.605C34.4833 15.64 31.6684 17.94 30.9646 18.745C30.1436 19.55 28.5015 19.205 27.7978 18.975L24.1618 16.675L20.5258 22.08L25.452 25.3C26.7422 26.105 26.5076 27.83 26.273 28.635C24.7482 30.705 21.3468 35.075 19.5875 36.455C17.7108 37.72 17.5935 36.11 17.8281 35.075L22.5197 27.715L17.8281 25.875L13.6057 32.545C11.6117 34.27 7.272 38.065 5.62994 39.79C3.40143 40.94 3.51872 39.215 3.7533 38.295L10.7907 30.82L12.5501 27.14L14.0748 21.735L18.2973 13.225C17.5935 12.42 14.6613 12.65 13.3711 12.88L11.0253 15.18L9.61781 16.675C7.97574 17.365 7.85845 16.1 7.97574 15.295C7.97574 15.18 8.32761 14.605 9.61781 13.11C12.1982 9.66 14.8959 9.545 17.0071 9.43C18.6492 9.2 22.2851 11.27 23.9272 12.305L28.3842 15.985C29.5571 16.79 30.3782 16.33 30.6128 15.985Z" fill="#0071A4"/>
</g>
</g>
<defs>
<clipPath id="clip0_23_2">
<rect width="116" height="46" fill="white"/>
</clipPath>
</defs>
</svg>
